<svg width="20" height="21" viewBox="0 0 20 21" fill="none" xmlns="http://www.w3.org/2000/svg">
<path d="M2.5 6.3335L7.325 11.1585C7.40247 11.2366 7.49464 11.2986 7.59619 11.3409C7.69774 11.3832 7.80666 11.405 7.91667 11.405C8.02668 11.405 8.1356 11.3832 8.23715 11.3409C8.3387 11.2986 8.43086 11.2366 8.50833 11.1585L10.6583 9.0085C10.7358 8.93039 10.828 8.86839 10.9295 8.82609C11.0311 8.78378 11.14 8.762 11.25 8.762C11.36 8.762 11.4689 8.78378 11.5705 8.82609C11.672 8.86839 11.7642 8.93039 11.8417 9.0085L17.5 14.6668" stroke="#FF6A55" stroke-width="1.5" stroke-linecap="round" stroke-linejoin="round"/>
<path d="M14.166 14.6668H17.4993V11.3335" stroke="#FF6A55" stroke-linecap="round" stroke-linejoin="round"/>
</svg>
