<svg width="14" height="14" viewBox="0 0 14 14" fill="none" xmlns="http://www.w3.org/2000/svg">
<g opacity="0.7">
<path fill-rule="evenodd" clip-rule="evenodd" d="M10.3421 5.99122L11.0833 5.24993C11.7277 4.6056 11.7277 3.56093 11.0833 2.9166C10.439 2.27227 9.39435 2.27227 8.75002 2.9166L7.9945 3.67211C8.54008 4.6474 9.35296 5.45383 10.3421 5.99122ZM6.53942 5.12719L3.18973 8.47689C2.76467 8.90195 2.55214 9.11448 2.4124 9.37557C2.27267 9.63667 2.21372 9.9314 2.09583 10.5208L1.8971 11.5145C1.83058 11.8471 1.79732 12.0134 1.89193 12.108C1.98654 12.2026 2.15284 12.1694 2.48545 12.1028L3.4791 11.9041C4.06855 11.7862 4.36328 11.7273 4.62437 11.5875C4.88547 11.4478 5.098 11.2353 5.52306 10.8102L8.88316 7.45012C7.94574 6.84715 7.14773 6.05441 6.53942 5.12719Z" fill="white"/>
</g>
</svg>
