<svg width="24" height="25" viewBox="0 0 24 25" fill="none" xmlns="http://www.w3.org/2000/svg">
<path d="M2.0355 12.8224C1.96642 12.6151 1.96635 12.3907 2.03531 12.1834C3.42368 8.00972 7.36074 5 12.0008 5C16.6386 5 20.5742 8.00692 21.9643 12.1776C22.0334 12.3849 22.0334 12.6093 21.9645 12.8166C20.5761 16.9903 16.639 20 11.999 20C7.36115 20 3.42559 16.9931 2.0355 12.8224Z" stroke="#3E90F0" stroke-width="1.5" stroke-linecap="round" stroke-linejoin="round"/>
<path d="M15 12.5C15 14.1569 13.6568 15.5 12 15.5C10.3431 15.5 8.99995 14.1569 8.99995 12.5C8.99995 10.8431 10.3431 9.5 12 9.5C13.6568 9.5 15 10.8431 15 12.5Z" stroke="#3E90F0" stroke-width="1.5" stroke-linecap="round" stroke-linejoin="round"/>
</svg>
