<svg width="24" height="25" viewBox="0 0 24 25" fill="none" xmlns="http://www.w3.org/2000/svg">
<path d="M8.73458 12.0156C8.15642 10.5735 8.09391 8.97599 8.55762 7.49314C9.02133 6.01028 9.98281 4.73301 11.2795 3.87721C12.5763 3.02142 14.1287 2.6396 15.6745 2.7963C17.2202 2.95299 18.6644 3.63859 19.7631 4.7372C20.8617 5.83582 21.5473 7.28006 21.7039 8.8258C21.8606 10.3716 21.4788 11.924 20.623 13.2207C19.7672 14.5175 18.49 15.4789 17.0071 15.9426C15.5242 16.4063 13.9268 16.3438 12.4847 15.7657L12.4847 15.7655L11.2502 17H9.00024V19.25H6.75024V21.5H3.00024V17.75L8.73474 12.0155L8.73458 12.0156Z" stroke="#A2A5AE" stroke-width="1.5" stroke-linecap="round" stroke-linejoin="round"/>
<path opacity="0.5" d="M16.875 8C17.0821 8 17.25 7.83211 17.25 7.625C17.25 7.41789 17.0821 7.25 16.875 7.25C16.6679 7.25 16.5 7.41789 16.5 7.625C16.5 7.83211 16.6679 8 16.875 8Z" stroke="#A2A5AE" stroke-width="1.5" stroke-linecap="round" stroke-linejoin="round"/>
<path d="M16.875 8.5625C17.3928 8.5625 17.8125 8.14277 17.8125 7.625C17.8125 7.10723 17.3928 6.6875 16.875 6.6875C16.3572 6.6875 15.9375 7.10723 15.9375 7.625C15.9375 8.14277 16.3572 8.5625 16.875 8.5625Z" fill="#A2A5AE"/>
</svg>
