<svg width="12" height="13" viewBox="0 0 12 13" fill="none" xmlns="http://www.w3.org/2000/svg">
<path d="M6 2C5.10999 2 4.23996 2.26392 3.49994 2.75839C2.75991 3.25285 2.18314 3.95566 1.84254 4.77792C1.50195 5.60019 1.41283 6.50499 1.58647 7.37791C1.7601 8.25082 2.18869 9.05264 2.81802 9.68198C3.44736 10.3113 4.24918 10.7399 5.1221 10.9135C5.99501 11.0872 6.89981 10.9981 7.72208 10.6575C8.54434 10.3169 9.24715 9.74009 9.74162 9.00007C10.2361 8.26005 10.5 7.39002 10.5 6.5" stroke="#6C7275" stroke-width="1.2" stroke-linecap="round"/>
<path d="M9.89648 4.25C9.94462 4.33337 9.99006 4.41825 10.0327 4.50453" stroke="#6C7275" stroke-width="1.2" stroke-linecap="round"/>
</svg>
