<svg width="12" height="13" viewBox="0 0 12 13" fill="none" xmlns="http://www.w3.org/2000/svg">
<path d="M4.5 10.625H2.25C2.15054 10.625 2.05516 10.5855 1.98484 10.5152C1.91451 10.4448 1.875 10.3495 1.875 10.25V8.15533C1.875 8.10609 1.8847 8.05733 1.90355 8.01183C1.92239 7.96633 1.95001 7.92499 1.98484 7.89017L7.60984 2.26517C7.68016 2.19484 7.77554 2.15533 7.875 2.15533C7.97446 2.15533 8.06984 2.19484 8.14016 2.26517L10.2348 4.35984C10.3052 4.43017 10.3447 4.52555 10.3447 4.625C10.3447 4.72446 10.3052 4.81984 10.2348 4.89017L4.5 10.625Z" stroke="#6C7275" stroke-width="1.2" stroke-linecap="round" stroke-linejoin="round"/>
<path d="M6.375 3.5L9 6.125" stroke="#6C7275" stroke-width="1.2" stroke-linecap="round" stroke-linejoin="round"/>
</svg>
