<svg width="16" height="16" viewBox="0 0 16 16" fill="none" xmlns="http://www.w3.org/2000/svg">
<path d="M6.49955 1C7.52352 0.99975 8.52724 1.28536 9.39768 1.82468C10.2681 2.364 10.9707 3.1356 11.4264 4.05261C11.882 4.96963 12.0726 5.99563 11.9767 7.01511C11.8808 8.03459 11.5022 9.00705 10.8835 9.823L14.7785 13.723C14.9151 13.8645 14.9906 14.054 14.9888 14.2507C14.987 14.4473 14.908 14.6354 14.7689 14.7744C14.6298 14.9134 14.4416 14.9921 14.245 14.9938C14.0484 14.9954 13.8589 14.9197 13.7175 14.783L9.82255 10.883C9.12712 11.4102 8.31623 11.7643 7.45687 11.9161C6.59752 12.0679 5.71438 12.0131 4.88041 11.7561C4.04645 11.4992 3.2856 11.0474 2.66073 10.4383C2.03586 9.82911 1.56491 9.08001 1.2868 8.25286C1.00868 7.4257 0.931376 6.54424 1.06128 5.6813C1.19117 4.81837 1.52455 3.99872 2.03385 3.2901C2.54315 2.58148 3.21375 2.00421 3.99026 1.606C4.76677 1.20779 5.62689 1.00007 6.49955 1ZM6.49955 2.5C5.43868 2.5 4.42126 2.92143 3.67112 3.67157C2.92097 4.42172 2.49955 5.43913 2.49955 6.5C2.49955 7.56087 2.92097 8.57828 3.67112 9.32843C4.42126 10.0786 5.43868 10.5 6.49955 10.5C7.56041 10.5 8.57783 10.0786 9.32797 9.32843C10.0781 8.57828 10.4995 7.56087 10.4995 6.5C10.4995 5.43913 10.0781 4.42172 9.32797 3.67157C8.57783 2.92143 7.56041 2.5 6.49955 2.5Z" fill="#6C7275"/>
</svg>
