<svg width="12" height="13" viewBox="0 0 12 13" fill="none" xmlns="http://www.w3.org/2000/svg">
<path d="M4.72624 11.1746C4.097 10.9701 3.52626 10.617 3.06226 10.1453C2.59825 9.67363 2.25463 9.09717 2.06043 8.46465C1.86623 7.83214 1.82717 7.16216 1.94654 6.51136C2.06591 5.86056 2.34021 5.24807 2.74624 4.72565" stroke="#6C7275" stroke-width="1.2" stroke-linecap="round" stroke-linejoin="round"/>
<path d="M4.41992 3.44864C4.98276 3.21496 5.59043 3.10903 6.19914 3.13848C6.80786 3.16794 7.40246 3.33204 7.94011 3.61897C8.47776 3.90591 8.94507 4.30852 9.30838 4.79782C9.67168 5.28711 9.92194 5.85089 10.0411 6.44855C10.1603 7.04621 10.1454 7.66286 9.99755 8.25408C9.84969 8.8453 9.57254 9.39636 9.18606 9.86756C8.79958 10.3388 8.3134 10.7184 7.76253 10.979C7.21167 11.2397 6.60985 11.375 6.00042 11.375" stroke="#6C7275" stroke-width="1.2" stroke-linecap="round" stroke-linejoin="round"/>
<path d="M5.53442 1.625L4.41992 3.4495L6.24467 4.564" stroke="#6C7275" stroke-width="1.2" stroke-linecap="round" stroke-linejoin="round"/>
</svg>
