<svg width="12" height="13" viewBox="0 0 12 13" fill="none" xmlns="http://www.w3.org/2000/svg">
<path d="M8.67101 2.23757L6.70405 4.20453L6.96922 5.53036L8.29504 5.79552L10.262 3.82856L10.2622 3.82848C10.5057 4.40318 10.5639 5.03949 10.4288 5.64883C10.2937 6.25818 9.97193 6.81023 9.50837 7.22817C9.04481 7.6461 8.46248 7.9091 7.84244 7.98058C7.22241 8.05205 6.59551 7.92843 6.04902 7.62693L6.04908 7.62683L3.42004 10.6705C3.20902 10.8813 2.92294 10.9997 2.62468 10.9996C2.32642 10.9995 2.0404 10.881 1.8295 10.6701C1.6186 10.4592 1.50008 10.1732 1.5 9.87489C1.49992 9.57664 1.61827 9.29055 1.82905 9.07953L4.87271 6.45053L4.87265 6.45056C4.57114 5.90407 4.44752 5.27717 4.519 4.65713C4.59047 4.03709 4.85348 3.45476 5.27141 2.9912C5.68934 2.52764 6.2414 2.20591 6.85074 2.0708C7.46009 1.93569 8.09639 1.99391 8.6711 2.23738L8.67101 2.23757Z" stroke="#6C7275" stroke-linecap="round" stroke-linejoin="round"/>
</svg>
